<mxfile host="app.diagrams.net" modified="2023-08-31T15:58:20.426Z" agent="Mozilla/5.0 (Windows NT 10.0; Win64; x64) AppleWebKit/537.36 (KHTML, like Gecko) Chrome/116.0.0.0 Safari/537.36" etag="pP30DkmA4QMg1yVYA2Eo" version="21.7.1" type="device">
  <diagram name="Page-1" id="0sABt3NtBiqJK8UlrKt1">
    <mxGraphModel dx="1434" dy="758" grid="1" gridSize="10" guides="1" tooltips="1" connect="1" arrows="1" fold="1" page="1" pageScale="1" pageWidth="1169" pageHeight="827" math="0" shadow="0">
      <root>
        <mxCell id="0" />
        <mxCell id="1" parent="0" />
        <mxCell id="ryF_aBN_pqzcjg0MYY2d-6" style="rounded=0;orthogonalLoop=1;jettySize=auto;html=1;exitX=1;exitY=0.5;exitDx=0;exitDy=0;entryX=0;entryY=0.5;entryDx=0;entryDy=0;endArrow=none;endFill=0;" parent="1" source="ryF_aBN_pqzcjg0MYY2d-1" target="ryF_aBN_pqzcjg0MYY2d-2" edge="1">
          <mxGeometry relative="1" as="geometry" />
        </mxCell>
        <mxCell id="ryF_aBN_pqzcjg0MYY2d-1" value="CLIENT" style="rounded=0;whiteSpace=wrap;html=1;" parent="1" vertex="1">
          <mxGeometry x="73" y="170" width="120" height="60" as="geometry" />
        </mxCell>
        <mxCell id="ryF_aBN_pqzcjg0MYY2d-7" style="shape=connector;rounded=0;orthogonalLoop=1;jettySize=auto;html=1;entryX=0;entryY=0.5;entryDx=0;entryDy=0;labelBackgroundColor=default;strokeColor=default;fontFamily=Helvetica;fontSize=11;fontColor=default;endArrow=none;endFill=0;exitX=1;exitY=0.25;exitDx=0;exitDy=0;" parent="1" source="ryF_aBN_pqzcjg0MYY2d-2" target="ryF_aBN_pqzcjg0MYY2d-3" edge="1">
          <mxGeometry relative="1" as="geometry" />
        </mxCell>
        <mxCell id="ryF_aBN_pqzcjg0MYY2d-8" style="edgeStyle=none;shape=connector;rounded=0;orthogonalLoop=1;jettySize=auto;html=1;exitX=0.5;exitY=1;exitDx=0;exitDy=0;entryX=0.5;entryY=0;entryDx=0;entryDy=0;labelBackgroundColor=default;strokeColor=default;fontFamily=Helvetica;fontSize=11;fontColor=default;endArrow=none;endFill=0;" parent="1" source="tGW2aGN4fxvMo5QDKC3J-7" target="ryF_aBN_pqzcjg0MYY2d-5" edge="1">
          <mxGeometry relative="1" as="geometry" />
        </mxCell>
        <mxCell id="ryF_aBN_pqzcjg0MYY2d-2" value="COMANDĂ" style="rounded=0;whiteSpace=wrap;html=1;" parent="1" vertex="1">
          <mxGeometry x="360" y="170" width="120" height="60" as="geometry" />
        </mxCell>
        <mxCell id="tGW2aGN4fxvMo5QDKC3J-5" style="edgeStyle=none;shape=connector;rounded=0;orthogonalLoop=1;jettySize=auto;html=1;exitX=1;exitY=0.5;exitDx=0;exitDy=0;entryX=0;entryY=0.5;entryDx=0;entryDy=0;labelBackgroundColor=default;strokeColor=default;fontFamily=Helvetica;fontSize=11;fontColor=default;endArrow=none;endFill=0;" edge="1" parent="1" source="ryF_aBN_pqzcjg0MYY2d-3" target="tGW2aGN4fxvMo5QDKC3J-4">
          <mxGeometry relative="1" as="geometry" />
        </mxCell>
        <mxCell id="ryF_aBN_pqzcjg0MYY2d-3" value="FUNCȚIONAR" style="whiteSpace=wrap;html=1;" parent="1" vertex="1">
          <mxGeometry x="640" y="70" width="120" height="60" as="geometry" />
        </mxCell>
        <mxCell id="ryF_aBN_pqzcjg0MYY2d-9" style="edgeStyle=none;shape=connector;rounded=0;orthogonalLoop=1;jettySize=auto;html=1;exitX=0;exitY=0.5;exitDx=0;exitDy=0;entryX=1;entryY=0.5;entryDx=0;entryDy=0;labelBackgroundColor=default;strokeColor=default;fontFamily=Helvetica;fontSize=11;fontColor=default;endArrow=none;endFill=0;" parent="1" source="ryF_aBN_pqzcjg0MYY2d-4" target="tGW2aGN4fxvMo5QDKC3J-7" edge="1">
          <mxGeometry relative="1" as="geometry" />
        </mxCell>
        <mxCell id="tGW2aGN4fxvMo5QDKC3J-6" style="edgeStyle=none;shape=connector;rounded=0;orthogonalLoop=1;jettySize=auto;html=1;exitX=1;exitY=0.5;exitDx=0;exitDy=0;entryX=0;entryY=0.5;entryDx=0;entryDy=0;labelBackgroundColor=default;strokeColor=default;fontFamily=Helvetica;fontSize=11;fontColor=default;endArrow=none;endFill=0;" edge="1" parent="1" source="ryF_aBN_pqzcjg0MYY2d-4" target="tGW2aGN4fxvMo5QDKC3J-4">
          <mxGeometry relative="1" as="geometry" />
        </mxCell>
        <mxCell id="ryF_aBN_pqzcjg0MYY2d-4" value="CURIER" style="whiteSpace=wrap;html=1;" parent="1" vertex="1">
          <mxGeometry x="640" y="320" width="120" height="60" as="geometry" />
        </mxCell>
        <mxCell id="ryF_aBN_pqzcjg0MYY2d-5" value="AUTOVEHICUL" style="whiteSpace=wrap;html=1;" parent="1" vertex="1">
          <mxGeometry x="360" y="470" width="120" height="60" as="geometry" />
        </mxCell>
        <mxCell id="7k0OPDWXXvQ4jLd5zXHH-1" value="&lt;font style=&quot;font-size: 13px;&quot;&gt;transmite&lt;/font&gt;" style="text;html=1;align=center;verticalAlign=middle;resizable=0;points=[];autosize=1;strokeColor=none;fillColor=none;fontSize=11;fontFamily=Helvetica;fontColor=default;" parent="1" vertex="1">
          <mxGeometry x="236" y="173" width="80" height="30" as="geometry" />
        </mxCell>
        <mxCell id="7k0OPDWXXvQ4jLd5zXHH-3" value="&lt;font style=&quot;font-size: 13px;&quot;&gt;preia&lt;/font&gt;" style="text;html=1;align=center;verticalAlign=middle;resizable=0;points=[];autosize=1;strokeColor=none;fillColor=none;fontSize=11;fontFamily=Helvetica;fontColor=default;rotation=-30;" parent="1" vertex="1">
          <mxGeometry x="539" y="111" width="50" height="30" as="geometry" />
        </mxCell>
        <mxCell id="tGW2aGN4fxvMo5QDKC3J-1" value="&lt;font style=&quot;font-size: 13px;&quot;&gt;&lt;b style=&quot;&quot;&gt;X&lt;/b&gt;&lt;/font&gt;" style="text;html=1;align=center;verticalAlign=middle;resizable=0;points=[];autosize=1;strokeColor=none;fillColor=none;fontSize=11;fontFamily=Helvetica;fontColor=default;" vertex="1" parent="1">
          <mxGeometry x="344" y="184" width="30" height="30" as="geometry" />
        </mxCell>
        <mxCell id="tGW2aGN4fxvMo5QDKC3J-2" value="&lt;font style=&quot;font-size: 13px;&quot;&gt;&lt;b style=&quot;&quot;&gt;X&lt;/b&gt;&lt;/font&gt;" style="text;html=1;align=center;verticalAlign=middle;resizable=0;points=[];autosize=1;strokeColor=none;fillColor=none;fontSize=11;fontFamily=Helvetica;fontColor=default;" vertex="1" parent="1">
          <mxGeometry x="464" y="170" width="30" height="30" as="geometry" />
        </mxCell>
        <mxCell id="tGW2aGN4fxvMo5QDKC3J-4" value="ANGAJAT" style="rounded=0;whiteSpace=wrap;html=1;fontFamily=Helvetica;fontSize=11;fontColor=default;fillColor=none;gradientColor=none;" vertex="1" parent="1">
          <mxGeometry x="920" y="170" width="120" height="60" as="geometry" />
        </mxCell>
        <mxCell id="tGW2aGN4fxvMo5QDKC3J-8" value="" style="edgeStyle=none;shape=connector;rounded=0;orthogonalLoop=1;jettySize=auto;html=1;exitX=0.5;exitY=1;exitDx=0;exitDy=0;entryX=0.5;entryY=0;entryDx=0;entryDy=0;labelBackgroundColor=default;strokeColor=default;fontFamily=Helvetica;fontSize=11;fontColor=default;endArrow=none;endFill=0;" edge="1" parent="1" source="ryF_aBN_pqzcjg0MYY2d-2" target="tGW2aGN4fxvMo5QDKC3J-7">
          <mxGeometry relative="1" as="geometry">
            <mxPoint x="420" y="230" as="sourcePoint" />
            <mxPoint x="420" y="470" as="targetPoint" />
          </mxGeometry>
        </mxCell>
        <mxCell id="tGW2aGN4fxvMo5QDKC3J-7" value="LIVRARE_COMANDĂ" style="rounded=0;whiteSpace=wrap;html=1;fontFamily=Helvetica;fontSize=11;fontColor=default;fillColor=none;gradientColor=none;dashed=1;dashPattern=8 8;" vertex="1" parent="1">
          <mxGeometry x="320" y="320" width="200" height="60" as="geometry" />
        </mxCell>
        <mxCell id="tGW2aGN4fxvMo5QDKC3J-9" value="&lt;font style=&quot;font-size: 13px;&quot;&gt;&lt;b&gt;&lt;u&gt;X&lt;/u&gt;&lt;/b&gt;&lt;/font&gt;" style="text;html=1;align=center;verticalAlign=middle;resizable=0;points=[];autosize=1;strokeColor=none;fillColor=none;fontSize=11;fontFamily=Helvetica;fontColor=default;" vertex="1" parent="1">
          <mxGeometry x="405" y="304" width="30" height="30" as="geometry" />
        </mxCell>
        <mxCell id="tGW2aGN4fxvMo5QDKC3J-10" value="&lt;font style=&quot;font-size: 13px;&quot;&gt;&lt;b&gt;&lt;u&gt;X&lt;/u&gt;&lt;/b&gt;&lt;/font&gt;" style="text;html=1;align=center;verticalAlign=middle;resizable=0;points=[];autosize=1;strokeColor=none;fillColor=none;fontSize=11;fontFamily=Helvetica;fontColor=default;" vertex="1" parent="1">
          <mxGeometry x="405" y="365" width="30" height="30" as="geometry" />
        </mxCell>
        <mxCell id="tGW2aGN4fxvMo5QDKC3J-11" value="&lt;font style=&quot;font-size: 13px;&quot;&gt;&lt;b&gt;&lt;u&gt;X&lt;/u&gt;&lt;/b&gt;&lt;/font&gt;" style="text;html=1;align=center;verticalAlign=middle;resizable=0;points=[];autosize=1;strokeColor=none;fillColor=none;fontSize=11;fontFamily=Helvetica;fontColor=default;" vertex="1" parent="1">
          <mxGeometry x="505" y="335" width="30" height="30" as="geometry" />
        </mxCell>
        <mxCell id="tGW2aGN4fxvMo5QDKC3J-12" value="&lt;font style=&quot;font-size: 14px;&quot;&gt;IS-A&lt;/font&gt;" style="text;html=1;align=center;verticalAlign=middle;resizable=0;points=[];autosize=1;strokeColor=none;fillColor=none;fontSize=11;fontFamily=Helvetica;fontColor=default;rotation=30;" vertex="1" parent="1">
          <mxGeometry x="825" y="120" width="50" height="30" as="geometry" />
        </mxCell>
        <mxCell id="tGW2aGN4fxvMo5QDKC3J-14" value="&lt;font style=&quot;font-size: 14px;&quot;&gt;IS-A&lt;/font&gt;" style="text;html=1;align=center;verticalAlign=middle;resizable=0;points=[];autosize=1;strokeColor=none;fillColor=none;fontSize=11;fontFamily=Helvetica;fontColor=default;rotation=-43;" vertex="1" parent="1">
          <mxGeometry x="825" y="274" width="50" height="30" as="geometry" />
        </mxCell>
      </root>
    </mxGraphModel>
  </diagram>
</mxfile>
